<?xml version="1.0" encoding="UTF-8"?>
<!DOCTYPE svg PUBLIC "-//W3C//DTD SVG 1.1//EN" "http://www.w3.org/Graphics/SVG/1.1/DTD/svg11.dtd">
<!-- Creator: CorelDRAW -->
<svg xmlns="http://www.w3.org/2000/svg" xml:space="preserve" width="33.8mm" height="47.7mm" version="1.1" style="shape-rendering:geometricPrecision; text-rendering:geometricPrecision; image-rendering:optimizeQuality; fill-rule:evenodd; clip-rule:evenodd"
viewBox="0 0 3380 4770"
 xmlns:xlink="http://www.w3.org/1999/xlink"
 xmlns:xodm="http://www.corel.com/coreldraw/odm/2003">
 <defs>
  <style type="text/css">
   <![CDATA[
    .str0 {stroke:#996633;stroke-width:60;stroke-linecap:round;stroke-linejoin:round;stroke-miterlimit:22.9256}
    .fil0 {fill:none}
   ]]>
  </style>
 </defs>
 <g id="Layer_x0020_1">
  <metadata id="CorelCorpID_0Corel-Layer"/>
  <path class="fil0 str0" d="M369.4 2818.44c313.73,-134.06 478.6,-251.48 675.81,-448.28 1422.18,-1419.14 -1017.62,-3300.01 -334.53,-1731.72 301.59,692.43 500.33,828.41 765.89,1606.14 75.85,222.16 118.93,433.59 135.25,632.3 14.49,176.45 7.89,342.9 -15.54,497.95 -168.81,1116.65 -1211.42,1643.26 -1545.82,1069.87"/>
  <path class="fil0 str0" d="M1684.08 101.51c32.36,216.83 264.13,763.19 520.94,979.74 398.18,335.78 929.37,410.97 947.76,441.11 98.28,160.99 -189.31,232.97 -224.86,450.92 -13.58,83.26 23.25,178.37 156.52,291.03 136.02,114.96 -244.71,233.39 -165.1,283 73.57,45.84 357.6,-23.68 237.74,180.19 -68.1,115.86 -149.42,479.7 122.68,857.21 384.85,533.92 -1281.42,240.74 -1163.03,733.78 18.57,77.33 8.9,330.86 65.91,418.6"/>
 </g>
</svg>
