<?xml version="1.0" encoding="UTF-8"?>
<!DOCTYPE svg PUBLIC "-//W3C//DTD SVG 1.1//EN" "http://www.w3.org/Graphics/SVG/1.1/DTD/svg11.dtd">
<!-- Creator: CorelDRAW -->
<svg xmlns="http://www.w3.org/2000/svg" xml:space="preserve" width="193mm" height="48mm" version="1.1" style="shape-rendering:geometricPrecision; text-rendering:geometricPrecision; image-rendering:optimizeQuality; fill-rule:evenodd; clip-rule:evenodd"
viewBox="0 0 19300 4800"
 xmlns:xlink="http://www.w3.org/1999/xlink"
 xmlns:xodm="http://www.corel.com/coreldraw/odm/2003">
 <defs>
  <style type="text/css">
   <![CDATA[
    .str1 {stroke:#373435;stroke-width:75;stroke-miterlimit:22.9256}
    .str0 {stroke:#996633;stroke-width:60;stroke-linecap:round;stroke-linejoin:round;stroke-miterlimit:22.9256}
    .fil0 {fill:none}
    .fil1 {fill:#373435;fill-rule:nonzero}
   ]]>
  </style>
 </defs>
 <g id="Layer_x0020_1">
  <metadata id="CorelCorpID_0Corel-Layer"/>
  <path class="fil0 str0" d="M366.33 2837.36c313.73,-134.06 478.6,-251.48 675.81,-448.28 1422.18,-1419.14 -1017.62,-3300.01 -334.53,-1731.72 301.59,692.43 500.33,828.41 765.89,1606.14 75.85,222.16 118.93,433.59 135.25,632.3 14.49,176.45 7.89,342.9 -15.54,497.95 -168.81,1116.65 -1211.42,1643.26 -1545.82,1069.87"/>
  <path class="fil0 str0" d="M1681.01 120.43c32.36,216.83 264.13,763.19 520.94,979.74 398.18,335.78 929.37,410.97 947.76,441.11 98.28,160.99 -189.31,232.97 -224.86,450.92 -13.58,83.26 23.25,178.37 156.52,291.03 136.02,114.96 -244.71,233.39 -165.1,283 73.57,45.84 357.6,-23.68 237.74,180.19 -68.1,115.86 -149.42,479.7 122.68,857.21 384.85,533.92 -1281.42,240.74 -1163.03,733.78 18.57,77.33 8.9,330.86 65.91,418.6"/>
  <line class="fil0 str1" x1="4099.02" y1="2459.89" x2="19270.95" y2= "2459.89" />
  <path class="fil1" d="M5233.77 1817.85c-15.99,0 -29.16,-5.17 -39.51,-15.52 -10.34,-10.35 -15.52,-23.52 -15.52,-39.51l0 -992.01c0,-16 5.18,-29.17 15.52,-39.51 10.35,-10.35 23.52,-15.53 39.51,-15.53 16,0 29.17,5.18 39.52,15.53 10.34,10.34 15.52,23.51 15.52,39.51l0 992.01c0,15.99 -5.18,29.16 -15.52,39.51 -10.35,10.35 -23.52,15.52 -39.52,15.52z"/>
  <path id="_1" class="fil1" d="M5909.7 1831.96c-60.21,0 -115.95,-8.7 -167.22,-26.1 -51.27,-17.41 -95.72,-42.1 -133.35,-74.09 -37.63,-31.98 -66.32,-69.14 -86.08,-111.48 -7.52,-15.05 -7.76,-28.92 -0.7,-41.62 7.05,-12.7 19.05,-21.4 35.98,-26.11 13.17,-3.76 26.11,-2.35 38.81,4.23 12.7,6.59 22.34,16.47 28.92,29.64 14.12,27.28 34.81,51.74 62.09,73.38 27.28,21.63 59.74,38.33 97.37,50.09 37.63,11.76 79.02,17.64 124.18,17.64 49.86,0 94.07,-8.23 132.64,-24.7 38.57,-16.46 68.91,-40.45 91.02,-71.96 22.11,-31.52 33.16,-69.85 33.16,-115.01 0,-57.38 -21.17,-106.77 -63.5,-148.16 -42.33,-41.4 -108.66,-67.74 -198.97,-79.03 -110.06,-13.17 -196.14,-47.27 -258.23,-102.3 -62.09,-55.04 -93.13,-122.53 -93.13,-202.5 0,-57.38 15.28,-107.24 45.86,-149.57 30.57,-42.34 72.67,-75.03 126.29,-98.08 53.62,-23.04 115.24,-34.57 184.86,-34.57 51.74,0 98.78,8.23 141.11,24.7 42.33,16.46 79.26,38.1 110.77,64.91 31.52,26.81 57.15,56.21 76.91,88.19 9.4,15.05 12.46,29.64 9.17,43.75 -3.29,14.11 -11.53,24.93 -24.7,32.45 -14.11,6.59 -28.45,7.53 -43.04,2.82 -14.58,-4.7 -25.63,-13.64 -33.16,-26.81 -14.11,-21.63 -31.75,-42.1 -52.91,-61.38 -21.17,-19.29 -46.8,-34.57 -76.91,-45.86 -30.1,-11.29 -66.32,-17.41 -108.65,-18.35 -74.32,0 -134.06,15.76 -179.21,47.28 -45.16,31.51 -67.74,77.37 -67.74,137.58 0,31.98 8.47,61.38 25.4,88.19 16.94,26.82 44.92,49.86 83.96,69.15 39.04,19.28 91.49,33.63 157.34,43.04 117.59,16.93 204.85,52.91 261.76,107.95 56.92,55.03 85.37,126.76 85.37,215.19 0,50.8 -9.17,95.96 -27.51,135.47 -18.35,39.51 -44.22,72.67 -77.61,99.48 -33.4,26.81 -72.44,47.27 -117.12,61.38 -44.69,14.12 -92.43,21.17 -143.23,21.17z"/>
  <path id="_2" class="fil1" d="M6444.5 1817.85c-21.63,0 -37.16,-8.94 -46.56,-26.81 -9.41,-17.88 -10.35,-35.28 -2.83,-52.21l414.87 -984.96c10.35,-25.4 28.22,-38.1 53.62,-38.1 24.46,0 41.87,12.7 52.21,38.1l416.28 986.37c8.47,17.87 7.29,35.28 -3.53,52.21 -10.81,16.93 -26.1,25.4 -45.86,25.4 -11.29,0 -21.4,-2.82 -30.34,-8.47 -8.93,-5.64 -16.22,-14.11 -21.87,-25.4l-388.05 -941.21 43.74 0 -390.88 941.21c-4.7,11.29 -11.52,19.76 -20.46,25.4 -8.93,5.65 -19.05,8.47 -30.34,8.47zm93.14 -262.47l42.33 -94.54 572.91 0 42.33 94.54 -657.57 0z"/>
  <path id="_3" class="fil1" d="M7559.28 1817.85c-17.87,0 -32.69,-4.94 -44.45,-14.82 -11.76,-9.87 -17.64,-23.28 -17.64,-40.21l0 -992.01c0,-16 5.18,-29.17 15.52,-39.51 10.35,-10.35 23.52,-15.53 39.51,-15.53l342.9 0c56.45,0 107.48,12 153.11,35.99 45.63,23.99 81.84,56.68 108.65,98.07 26.82,41.39 40.22,89.37 40.22,143.93 0,50.8 -13.64,95.96 -40.92,135.47 -27.28,39.51 -63.03,69.61 -107.24,90.31 63.02,16.93 113.82,48.68 152.39,95.25 38.58,46.57 57.86,105.6 57.86,177.09 0,63.97 -14.58,120.42 -43.74,169.34 -29.17,48.92 -69.38,87.25 -120.65,115 -51.27,27.75 -109.84,41.63 -175.69,41.63l-359.83 0zm47.98 -105.83l311.85 0c45.16,0 85.14,-8.94 119.95,-26.81 34.8,-17.88 62.09,-43.28 81.84,-76.2 19.76,-32.93 29.63,-71.97 29.63,-117.13 0,-42.33 -9.87,-79.25 -29.63,-110.77 -19.75,-31.51 -47.04,-55.97 -81.84,-73.38 -34.81,-17.4 -74.79,-26.1 -119.95,-26.1l-311.85 0 0 430.39zm0 -536.23l287.86 0c56.45,0 103.02,-15.99 139.7,-47.97 36.69,-31.99 55.04,-76.67 55.04,-134.06 0,-56.44 -18.35,-99.25 -55.04,-128.41 -36.68,-29.16 -83.25,-43.74 -139.7,-43.74l-287.86 0 0 354.18z"/>
  <path id="_4" class="fil1" d="M8532.94 1817.85c-15.99,0 -29.16,-5.17 -39.51,-15.52 -10.34,-10.35 -15.52,-23.52 -15.52,-39.51l0 -992.01c0,-16 5.18,-29.17 15.52,-39.51 10.35,-10.35 23.52,-15.53 39.51,-15.53l661.81 0c15.06,0 27.99,4.94 38.81,14.82 10.82,9.88 16.23,22.81 16.23,38.81 0,14.11 -5.41,26.34 -16.23,36.68 -10.82,10.35 -23.75,15.53 -38.81,15.53l-606.77 0 0 389.46 441.68 0c15.99,0 29.16,5.18 39.51,15.52 10.34,10.35 15.52,23.05 15.52,38.1 0,15.06 -5.18,27.76 -15.52,38.1 -10.35,10.35 -23.52,15.53 -39.51,15.53l-441.68 0 0 393.7 606.77 0c15.06,0 27.99,5.17 38.81,15.52 10.82,10.35 16.23,22.58 16.23,36.69 0,15.99 -5.41,28.93 -16.23,38.8 -10.82,9.88 -23.75,14.82 -38.81,14.82l-661.81 0z"/>
  <path id="_5" class="fil1" d="M9509.43 1817.85c-15.05,0 -27.98,-5.17 -38.8,-15.52 -10.82,-10.35 -16.23,-23.52 -16.23,-39.51l0 -992.01c0,-15.06 5.41,-27.99 16.23,-38.81 10.82,-10.82 23.75,-16.23 38.8,-16.23 15.06,0 27.99,5.41 38.81,16.23 10.82,10.82 16.23,23.75 16.23,38.81l0 942.62 551.74 0c15.05,0 27.99,4.94 38.81,14.81 10.82,9.88 16.22,22.35 16.22,37.4 0,15.05 -5.4,27.52 -16.22,37.39 -10.82,9.88 -23.76,14.82 -38.81,14.82l-606.78 0z"/>
  <path id="_6" class="fil1" d="M10402.66 1817.85c-15.05,0 -27.98,-5.17 -38.8,-15.52 -10.82,-10.35 -16.23,-23.52 -16.23,-39.51l0 -992.01c0,-15.06 5.41,-27.99 16.23,-38.81 10.82,-10.82 23.75,-16.23 38.8,-16.23 15.06,0 27.99,5.41 38.81,16.23 10.82,10.82 16.23,23.75 16.23,38.81l0 942.62 551.74 0c15.05,0 27.99,4.94 38.81,14.81 10.82,9.88 16.22,22.35 16.22,37.4 0,15.05 -5.4,27.52 -16.22,37.39 -10.82,9.88 -23.76,14.82 -38.81,14.82l-606.78 0z"/>
  <path id="_7" class="fil1" d="M11180.18 1817.85c-21.63,0 -37.16,-8.94 -46.56,-26.81 -9.41,-17.88 -10.35,-35.28 -2.83,-52.21l414.87 -984.96c10.35,-25.4 28.22,-38.1 53.62,-38.1 24.46,0 41.87,12.7 52.21,38.1l416.28 986.37c8.47,17.87 7.29,35.28 -3.53,52.21 -10.81,16.93 -26.1,25.4 -45.86,25.4 -11.29,0 -21.4,-2.82 -30.34,-8.47 -8.93,-5.64 -16.22,-14.11 -21.87,-25.4l-388.05 -941.21 43.74 0 -390.88 941.21c-4.7,11.29 -11.52,19.76 -20.46,25.4 -8.93,5.65 -19.05,8.47 -30.34,8.47zm93.14 -262.47l42.33 -94.54 572.91 0 42.33 94.54 -657.57 0z"/>
  <path id="_8" class="fil1" d="M12701.36 1817.85c-15.05,0 -27.98,-5.41 -38.8,-16.23 -10.82,-10.82 -16.23,-23.75 -16.23,-38.8l0 -992.01c0,-16 5.41,-29.17 16.23,-39.51 10.82,-10.35 23.75,-15.53 38.8,-15.53 22.58,0 39.05,9.41 49.39,28.23l475.55 945.44 -47.98 0 467.08 -945.44c11.29,-18.82 27.75,-28.23 49.39,-28.23 15.05,0 27.75,5.18 38.1,15.53 10.34,10.34 15.52,23.51 15.52,39.51l0 992.01c0,15.05 -5.18,27.98 -15.52,38.8 -10.35,10.82 -23.05,16.23 -38.1,16.23 -16,0 -29.4,-5.41 -40.22,-16.23 -10.82,-10.82 -16.23,-23.75 -16.23,-38.8l0 -849.49 23.99 1.41 -416.28 850.9c-10.35,17.87 -26.34,26.81 -47.97,26.81 -23.52,0 -40.46,-11.29 -50.8,-33.87l-419.1 -838.2 28.22 -7.05 0 849.49c0,15.05 -5.41,27.98 -16.23,38.8 -10.82,10.82 -23.75,16.23 -38.81,16.23z"/>
  <path id="_9" class="fil1" d="M14540.04 1831.96c-81.84,0 -157.1,-14.11 -225.78,-42.33 -68.67,-28.22 -128.17,-67.74 -178.5,-118.54 -50.33,-50.8 -89.37,-110.53 -117.12,-179.21 -27.76,-68.67 -41.63,-143.93 -41.63,-225.77 0,-80.91 13.87,-155.7 41.63,-224.37 27.75,-68.67 66.79,-128.41 117.12,-179.21 50.33,-50.8 109.83,-90.31 178.5,-118.53 68.68,-28.23 143.94,-42.34 225.78,-42.34 80.91,0 155.69,14.11 224.37,42.34 68.67,28.22 128.41,67.73 179.21,118.53 50.8,50.8 90.08,110.54 117.83,179.21 27.75,68.67 41.62,143.46 41.62,224.37 0,81.84 -13.87,157.1 -41.62,225.77 -27.75,68.68 -67.03,128.41 -117.83,179.21 -50.8,50.8 -110.54,90.32 -179.21,118.54 -68.68,28.22 -143.46,42.33 -224.37,42.33zm0 -104.42c64.91,0 125.12,-11.53 180.62,-34.57 55.51,-23.05 103.72,-55.51 144.64,-97.37 40.92,-41.86 72.67,-90.78 95.25,-146.76 22.58,-55.97 33.87,-116.88 33.87,-182.73 0,-64.92 -11.29,-125.36 -33.87,-181.33 -22.58,-55.98 -54.33,-104.89 -95.25,-146.76 -40.92,-41.86 -89.13,-74.32 -144.64,-97.36 -55.5,-23.05 -115.71,-34.58 -180.62,-34.58 -65.85,0 -126.53,11.53 -182.03,34.58 -55.51,23.04 -103.72,55.5 -144.64,97.36 -40.92,41.87 -72.67,90.78 -95.25,146.76 -22.58,55.97 -33.87,116.41 -33.87,181.33 0,65.85 11.29,126.76 33.87,182.73 22.58,55.98 54.33,104.9 95.25,146.76 40.92,41.86 89.13,74.32 144.64,97.37 55.5,23.04 116.18,34.57 182.03,34.57z"/>
  <path id="_10" class="fil1" d="M15565.92 1817.85c-15.05,0 -27.98,-5.41 -38.8,-16.23 -10.82,-10.82 -16.23,-23.75 -16.23,-38.8l0 -1047.05 110.07 0 0 1047.05c0,15.05 -5.18,27.98 -15.53,38.8 -10.34,10.82 -23.51,16.23 -39.51,16.23zm-389.46 -1001.89c-15.06,0 -27.28,-4.7 -36.69,-14.11 -9.41,-9.41 -14.11,-21.17 -14.11,-35.28 0,-15.05 4.7,-27.28 14.11,-36.69 9.41,-9.4 21.63,-14.11 36.69,-14.11l780.34 0c15.05,0 27.28,4.71 36.69,14.11 9.41,9.41 14.11,21.64 14.11,36.69 0,14.11 -4.7,25.87 -14.11,35.28 -9.41,9.41 -21.64,14.11 -36.69,14.11l-780.34 0z"/>
  <path id="_11" class="fil1" d="M16490.2 1817.85c-15.05,0 -27.98,-5.41 -38.8,-16.23 -10.82,-10.82 -16.23,-23.75 -16.23,-38.8l0 -1047.05 110.07 0 0 1047.05c0,15.05 -5.18,27.98 -15.53,38.8 -10.34,10.82 -23.51,16.23 -39.51,16.23zm-389.46 -1001.89c-15.06,0 -27.28,-4.7 -36.69,-14.11 -9.41,-9.41 -14.11,-21.17 -14.11,-35.28 0,-15.05 4.7,-27.28 14.11,-36.69 9.41,-9.4 21.63,-14.11 36.69,-14.11l780.34 0c15.05,0 27.28,4.71 36.69,14.11 9.41,9.41 14.11,21.64 14.11,36.69 0,14.11 -4.7,25.87 -14.11,35.28 -9.41,9.41 -21.64,14.11 -36.69,14.11l-780.34 0z"/>
  <path id="_12" class="fil1" d="M16920.59 1817.85c-21.63,0 -37.16,-8.94 -46.56,-26.81 -9.41,-17.88 -10.35,-35.28 -2.83,-52.21l414.87 -984.96c10.35,-25.4 28.22,-38.1 53.62,-38.1 24.46,0 41.87,12.7 52.21,38.1l416.28 986.37c8.47,17.87 7.29,35.28 -3.53,52.21 -10.81,16.93 -26.1,25.4 -45.86,25.4 -11.29,0 -21.4,-2.82 -30.34,-8.47 -8.93,-5.64 -16.22,-14.11 -21.87,-25.4l-388.05 -941.21 43.74 0 -390.88 941.21c-4.7,11.29 -11.52,19.76 -20.46,25.4 -8.93,5.65 -19.05,8.47 -30.34,8.47zm93.14 -262.47l42.33 -94.54 572.91 0 42.33 94.54 -657.57 0z"/>
  <path class="fil1" d="M6432.52 4192.82c-14.39,0 -26.25,-4.66 -35.56,-13.97 -9.31,-9.31 -13.97,-21.17 -13.97,-35.56l0 -892.81c0,-14.39 4.66,-26.25 13.97,-35.56 9.31,-9.31 21.17,-13.97 35.56,-13.97l228.6 0c72.81,0 139.49,12.06 200.03,36.19 60.53,24.13 112.81,58.42 156.84,102.87 44.03,44.45 78.11,96.74 102.24,156.85 24.13,60.11 36.19,126.58 36.19,199.39 0,72.81 -12.06,139.49 -36.19,200.02 -24.13,60.54 -58.21,113.03 -102.24,157.48 -44.03,44.45 -96.31,78.74 -156.84,102.87 -60.54,24.13 -127.22,36.2 -200.03,36.2l-228.6 0zm49.53 -88.9l179.07 0c77.89,0 146.69,-17.57 206.38,-52.71 59.69,-35.13 106.46,-83.39 140.33,-144.78 33.87,-61.38 50.8,-131.44 50.8,-210.18 0,-78.74 -16.93,-148.8 -50.8,-210.19 -33.87,-61.38 -80.64,-109.43 -140.33,-144.14 -59.69,-34.71 -128.49,-52.07 -206.38,-52.07l-179.07 0 0 814.07z"/>
  <path id="_1_0" class="fil1" d="M7663.15 4199.17c-68.58,0 -129.33,-15.03 -182.24,-45.09 -52.92,-30.05 -94.41,-71.75 -124.46,-125.09 -30.06,-53.34 -45.09,-114.3 -45.09,-182.88 0,-69.43 14.18,-130.6 42.55,-183.52 28.36,-52.91 67.52,-94.61 117.47,-125.09 49.95,-30.48 107.53,-45.72 172.72,-45.72 64.35,0 120.44,14.6 168.28,43.81 47.83,29.21 84.87,69.64 111.12,121.29 26.25,51.65 39.37,110.49 39.37,176.53 0,13.55 -4.23,24.34 -12.7,32.38 -8.47,8.05 -19.47,12.07 -33.02,12.07l-539.75 0 0 -81.28 549.91 0 -54.61 39.37c0.85,-49.11 -8.04,-93.13 -26.67,-132.08 -18.63,-38.95 -45.08,-69.43 -79.37,-91.44 -34.29,-22.01 -75.15,-33.02 -122.56,-33.02 -48.26,0 -90.59,11.43 -127,34.29 -36.41,22.86 -64.56,54.4 -84.45,94.61 -19.9,40.22 -29.85,86.15 -29.85,137.8 0,51.65 11.22,97.37 33.66,137.16 22.43,39.79 53.12,71.12 92.07,93.98 38.95,22.86 83.82,34.29 134.62,34.29 30.48,0 61.17,-5.29 92.08,-15.88 30.9,-10.58 55.66,-23.91 74.29,-40 9.31,-7.62 19.9,-11.64 31.75,-12.07 11.85,-0.42 22.01,2.76 30.48,9.53 11.01,10.16 16.72,21.17 17.15,33.02 0.42,11.85 -4.45,22.01 -14.61,30.48 -27.94,23.71 -63.5,43.39 -106.68,59.05 -43.18,15.67 -84.67,23.5 -124.46,23.5z"/>
  <path id="_2_1" class="fil1" d="M8168.61 3764.83c2.54,-52.49 16.3,-99.48 41.28,-140.97 24.97,-41.49 57.57,-74.08 97.79,-97.79 40.21,-23.71 84.87,-35.56 133.98,-35.56 38.95,0 69,5.5 90.17,16.51 21.17,11.01 29.21,27.09 24.13,48.26 -3.39,12.7 -9.1,21.17 -17.14,25.4 -8.05,4.23 -17.78,5.93 -29.21,5.08 -11.43,-0.85 -24.35,-1.69 -38.74,-2.54 -47.41,-4.23 -89.53,0.63 -126.36,14.6 -36.83,13.97 -66.04,35.35 -87.63,64.14 -21.59,28.79 -32.39,63.08 -32.39,102.87l-55.88 0zm7.62 427.99c-15.24,0 -27.09,-4.23 -35.56,-12.7 -8.47,-8.47 -12.7,-20.32 -12.7,-35.56l0 -598.17c0,-15.24 4.23,-27.09 12.7,-35.56 8.47,-8.47 20.32,-12.7 35.56,-12.7 15.24,0 27.09,4.23 35.56,12.7 8.47,8.47 12.7,20.32 12.7,35.56l0 598.17c0,15.24 -4.23,27.09 -12.7,35.56 -8.47,8.47 -20.32,12.7 -35.56,12.7z"/>
  <path id="_3_2" class="fil1" d="M9648.16 4192.82c-14.39,0 -26.25,-4.45 -35.56,-13.34 -9.31,-8.89 -13.97,-20.53 -13.97,-34.92l0 -365.76c0,-60.11 -15.66,-107.74 -46.99,-142.88 -31.33,-35.13 -71.54,-52.7 -120.65,-52.7 -52.49,0 -95.46,17.57 -128.9,52.7 -33.45,35.14 -49.75,81.92 -48.9,140.34l-87.63 0c0.85,-56.73 13.12,-106.68 36.83,-149.86 23.71,-43.18 56.3,-76.62 97.79,-100.33 41.49,-23.71 88.48,-35.56 140.97,-35.56 49.95,0 94.19,11.85 132.72,35.56 38.52,23.71 68.58,57.15 90.17,100.33 21.59,43.18 32.38,93.98 32.38,152.4l0 365.76c0,14.39 -4.44,26.03 -13.33,34.92 -8.89,8.89 -20.54,13.34 -34.93,13.34zm-889 0c-15.24,0 -27.3,-4.45 -36.19,-13.34 -8.89,-8.89 -13.34,-20.53 -13.34,-34.92l0 -596.9c0,-14.39 4.45,-26.25 13.34,-35.56 8.89,-9.31 20.95,-13.97 36.19,-13.97 14.39,0 26.04,4.66 34.93,13.97 8.89,9.31 13.33,21.17 13.33,35.56l0 596.9c0,14.39 -4.44,26.03 -13.33,34.92 -8.89,8.89 -20.54,13.34 -34.93,13.34zm445.77 0c-14.39,0 -26.25,-4.45 -35.56,-13.34 -9.31,-8.89 -13.97,-20.53 -13.97,-34.92l0 -365.76c0,-60.11 -15.66,-107.74 -46.99,-142.88 -31.33,-35.13 -71.54,-52.7 -120.65,-52.7 -52.49,0 -95.67,17.14 -129.54,51.43 -33.87,34.29 -50.8,78.96 -50.8,133.99l-69.85 0c1.69,-54.19 13.76,-102.24 36.2,-144.15 22.43,-41.91 53.12,-74.71 92.07,-98.42 38.95,-23.71 82.97,-35.56 132.08,-35.56 49.95,0 94.19,11.85 132.72,35.56 38.52,23.71 68.58,57.15 90.17,100.33 21.59,43.18 32.38,93.98 32.38,152.4l0 365.76c0,14.39 -4.44,26.03 -13.33,34.92 -8.89,8.89 -20.54,13.34 -34.93,13.34z"/>
  <path id="_4_3" class="fil1" d="M10218.39 4199.17c-65.19,0 -123.61,-15.45 -175.26,-46.36 -51.65,-30.9 -92.5,-73.02 -122.55,-126.36 -30.06,-53.34 -45.09,-113.45 -45.09,-180.34 0,-67.73 15.45,-128.27 46.36,-181.61 30.9,-53.34 73.02,-95.46 126.36,-126.37 53.34,-30.9 113.45,-46.35 180.34,-46.35 66.89,0 126.79,15.45 179.71,46.35 52.91,30.91 94.82,73.03 125.73,126.37 30.9,53.34 46.77,113.88 47.62,181.61l-39.37 30.48c0,60.96 -14.18,115.78 -42.54,164.46 -28.37,48.69 -66.89,87.21 -115.57,115.57 -48.69,28.37 -103.93,42.55 -165.74,42.55zm10.16 -88.9c49.11,0 92.92,-11.43 131.45,-34.29 38.52,-22.86 69,-54.4 91.44,-94.62 22.43,-40.21 33.65,-85.3 33.65,-135.25 0,-50.8 -11.22,-96.1 -33.65,-135.89 -22.44,-39.79 -52.92,-71.33 -91.44,-94.62 -38.53,-23.28 -82.34,-34.92 -131.45,-34.92 -48.26,0 -91.86,11.64 -130.81,34.92 -38.95,23.29 -69.85,54.83 -92.71,94.62 -22.86,39.79 -34.29,85.09 -34.29,135.89 0,49.95 11.43,95.04 34.29,135.25 22.86,40.22 53.76,71.76 92.71,94.62 38.95,22.86 82.55,34.29 130.81,34.29zm303.53 82.55c-14.39,0 -26.25,-4.45 -35.56,-13.34 -9.31,-8.89 -13.97,-20.53 -13.97,-34.92l0 -217.17 24.13 -100.33 74.93 19.05 0 298.45c0,14.39 -4.66,26.03 -13.97,34.92 -9.31,8.89 -21.17,13.34 -35.56,13.34z"/>
  <path id="_5_4" class="fil1" d="M11043.89 4192.82c-44.87,0 -84.88,-10.58 -120.01,-31.75 -35.14,-21.17 -62.87,-50.17 -83.19,-87 -20.32,-36.83 -30.48,-78.95 -30.48,-126.36l0 -621.03c0,-14.39 4.45,-26.25 13.34,-35.56 8.89,-9.31 20.53,-13.97 34.92,-13.97 14.39,0 26.25,4.66 35.56,13.97 9.31,9.31 13.97,21.17 13.97,35.56l0 621.03c0,43.18 12.7,78.53 38.1,106.04 25.4,27.52 58,41.28 97.79,41.28l34.29 0c13.55,0 24.55,4.66 33.02,13.97 8.47,9.31 12.7,21.17 12.7,35.56 0,14.39 -5.08,26.03 -15.24,34.92 -10.16,8.89 -22.86,13.34 -38.1,13.34l-26.67 0zm-316.23 -584.2c-12.7,0 -23.28,-4.02 -31.75,-12.07 -8.47,-8.04 -12.7,-17.99 -12.7,-29.84 0,-12.7 4.23,-23.07 12.7,-31.12 8.47,-8.04 19.05,-12.06 31.75,-12.06l323.85 0c12.7,0 23.28,4.02 31.75,12.06 8.47,8.05 12.7,18.42 12.7,31.12 0,11.85 -4.23,21.8 -12.7,29.84 -8.47,8.05 -19.05,12.07 -31.75,12.07l-323.85 0z"/>
  <path id="_6_5" class="fil1" d="M11598.88 4199.17c-67.73,0 -128.27,-15.24 -181.61,-45.72 -53.34,-30.48 -95.25,-72.39 -125.73,-125.73 -30.48,-53.34 -45.72,-113.88 -45.72,-181.61 0,-68.58 15.24,-129.54 45.72,-182.88 30.48,-53.34 72.39,-95.25 125.73,-125.73 53.34,-30.48 113.88,-45.72 181.61,-45.72 67.73,0 128.06,15.24 180.98,45.72 52.91,30.48 94.61,72.39 125.09,125.73 30.48,53.34 46.14,114.3 46.99,182.88 0,67.73 -15.45,128.27 -46.35,181.61 -30.91,53.34 -72.82,95.25 -125.73,125.73 -52.92,30.48 -113.25,45.72 -180.98,45.72zm0 -88.9c49.11,0 93.13,-11.43 132.08,-34.29 38.95,-22.86 69.43,-54.19 91.44,-93.98 22.01,-39.79 33.02,-85.09 33.02,-135.89 0,-50.8 -11.01,-96.31 -33.02,-136.53 -22.01,-40.21 -52.49,-71.75 -91.44,-94.61 -38.95,-22.86 -82.97,-34.29 -132.08,-34.29 -49.11,0 -93.13,11.43 -132.08,34.29 -38.95,22.86 -69.64,54.4 -92.07,94.61 -22.44,40.22 -33.66,85.73 -33.66,136.53 0,50.8 11.22,96.1 33.66,135.89 22.43,39.79 53.12,71.12 92.07,93.98 38.95,22.86 82.97,34.29 132.08,34.29z"/>
  <path id="_7_6" class="fil1" d="M12292.3 4192.82c-33.87,0 -64.13,-9.31 -90.8,-27.94 -26.67,-18.63 -47.42,-44.45 -62.23,-77.47 -14.82,-33.02 -22.23,-71.12 -22.23,-114.3l0 -723.9c0,-14.39 4.45,-26.04 13.34,-34.93 8.89,-8.89 20.53,-13.33 34.92,-13.33 14.39,0 26.04,4.44 34.93,13.33 8.89,8.89 13.33,20.54 13.33,34.93l0 723.9c0,36.41 7.41,66.04 22.23,88.9 14.81,22.86 33.65,34.29 56.51,34.29l31.75 0c12.7,0 22.86,4.44 30.48,13.33 7.62,8.89 11.43,20.54 11.43,34.93 0,14.39 -5.29,26.03 -15.87,34.92 -10.59,8.89 -24.35,13.34 -41.28,13.34l-16.51 0z"/>
  <path id="_8_7" class="fil1" d="M12778.71 4199.17c-67.73,0 -128.27,-15.24 -181.61,-45.72 -53.34,-30.48 -95.25,-72.39 -125.73,-125.73 -30.48,-53.34 -45.72,-113.88 -45.72,-181.61 0,-68.58 15.24,-129.54 45.72,-182.88 30.48,-53.34 72.39,-95.25 125.73,-125.73 53.34,-30.48 113.88,-45.72 181.61,-45.72 67.73,0 128.06,15.24 180.98,45.72 52.91,30.48 94.61,72.39 125.09,125.73 30.48,53.34 46.14,114.3 46.99,182.88 0,67.73 -15.45,128.27 -46.35,181.61 -30.91,53.34 -72.82,95.25 -125.73,125.73 -52.92,30.48 -113.25,45.72 -180.98,45.72zm0 -88.9c49.11,0 93.13,-11.43 132.08,-34.29 38.95,-22.86 69.43,-54.19 91.44,-93.98 22.01,-39.79 33.02,-85.09 33.02,-135.89 0,-50.8 -11.01,-96.31 -33.02,-136.53 -22.01,-40.21 -52.49,-71.75 -91.44,-94.61 -38.95,-22.86 -82.97,-34.29 -132.08,-34.29 -49.11,0 -93.13,11.43 -132.08,34.29 -38.95,22.86 -69.64,54.4 -92.07,94.61 -22.44,40.22 -33.66,85.73 -33.66,136.53 0,50.8 11.22,96.1 33.66,135.89 22.43,39.79 53.12,71.12 92.07,93.98 38.95,22.86 82.97,34.29 132.08,34.29z"/>
  <path id="_9_8" class="fil1" d="M13628.34 4199.17c-66.89,0 -126.15,-15.03 -177.8,-45.09 -51.65,-30.05 -92.07,-71.75 -121.28,-125.09 -29.21,-53.34 -43.82,-114.3 -43.82,-182.88 0,-69.43 15.24,-130.81 45.72,-184.15 30.48,-53.34 72.39,-95.04 125.73,-125.1 53.34,-30.05 113.88,-45.08 181.61,-45.08 68.58,0 129.33,15.03 182.25,45.08 52.91,30.06 94.4,71.76 124.46,125.1 30.05,53.34 45.5,114.72 46.35,184.15l-57.15 30.48c0,62.65 -13.12,118.32 -39.37,167 -26.25,48.69 -62.44,86.79 -108.58,114.3 -46.15,27.52 -98.85,41.28 -158.12,41.28zm12.7 267.97c-66.89,0 -125.73,-12.49 -176.53,-37.46 -50.8,-24.98 -92.71,-59.06 -125.73,-102.24 -9.31,-10.16 -13.33,-21.17 -12.06,-33.02 1.27,-11.85 7.4,-21.59 18.41,-29.21 11.01,-7.62 23.28,-10.16 36.83,-7.62 13.55,2.54 24.13,8.89 31.75,19.05 24.55,30.48 56.09,55.03 94.62,73.66 38.52,18.63 83.18,27.94 133.98,27.94 47.41,0 90.17,-11.43 128.27,-34.29 38.1,-22.86 68.37,-55.03 90.81,-96.52 22.43,-41.49 33.65,-90.17 33.65,-146.05l0 -193.04 36.83 -73.66 59.69 11.43 0 259.08c0,68.58 -15.24,130.18 -45.72,184.79 -30.48,54.61 -71.97,97.79 -124.46,129.54 -52.49,31.75 -112.61,47.62 -180.34,47.62zm-2.54 -356.87c49.95,0 94.19,-11.22 132.72,-33.66 38.52,-22.43 68.79,-53.55 90.8,-93.34 22.01,-39.79 33.02,-85.51 33.02,-137.16 0,-51.65 -11.01,-97.58 -33.02,-137.8 -22.01,-40.21 -52.28,-71.54 -90.8,-93.98 -38.53,-22.43 -82.77,-33.65 -132.72,-33.65 -49.95,0 -94.4,11.22 -133.35,33.65 -38.95,22.44 -69.43,53.77 -91.44,93.98 -22.01,40.22 -33.02,86.15 -33.02,137.8 0,51.65 11.01,97.37 33.02,137.16 22.01,39.79 52.49,70.91 91.44,93.34 38.95,22.44 83.4,33.66 133.35,33.66z"/>
  <path id="_10_9" class="fil1" d="M14251.91 4192.82c-15.24,0 -27.3,-4.45 -36.19,-13.34 -8.89,-8.89 -13.34,-20.95 -13.34,-36.19l0 -595.63c0,-15.24 4.45,-27.31 13.34,-36.2 8.89,-8.89 20.95,-13.33 36.19,-13.33 14.39,0 26.04,4.44 34.93,13.33 8.89,8.89 13.33,20.96 13.33,36.2l0 595.63c0,15.24 -4.44,27.3 -13.33,36.19 -8.89,8.89 -20.54,13.34 -34.93,13.34zm-1.27 -826.77c-18.63,0 -34.71,-6.77 -48.26,-20.32 -13.55,-13.55 -20.32,-30.06 -20.32,-49.53 0,-21.17 6.99,-37.89 20.96,-50.17 13.97,-12.27 30.26,-18.41 48.89,-18.41 17.78,0 33.66,6.14 47.63,18.41 13.97,12.28 20.95,29 20.95,50.17 0,19.47 -6.77,35.98 -20.32,49.53 -13.55,13.55 -30.06,20.32 -49.53,20.32z"/>
  <path id="_11_10" class="fil1" d="M14791.66 4199.17c-49.95,0 -99.48,-8.47 -148.59,-25.4 -49.11,-16.93 -88.9,-42.33 -119.38,-76.2 -9.31,-10.16 -13.12,-21.59 -11.43,-34.29 1.69,-12.7 8.04,-23.71 19.05,-33.02 11.85,-8.47 24.13,-11.85 36.83,-10.16 12.7,1.69 23.28,7.2 31.75,16.51 20.32,23.71 47.2,41.91 80.65,54.61 33.44,12.7 70.48,19.05 111.12,19.05 62.65,0 107.95,-10.8 135.89,-32.39 27.94,-21.59 42.33,-47.62 43.18,-78.1 0,-30.48 -14.39,-55.67 -43.18,-75.57 -28.79,-19.89 -76.2,-35.34 -142.24,-46.35 -85.51,-13.55 -148.17,-37.25 -187.96,-71.12 -39.79,-33.87 -59.69,-74.08 -59.69,-120.65 0,-43.18 11.43,-79.16 34.29,-107.95 22.86,-28.79 53.34,-50.38 91.44,-64.77 38.1,-14.39 80.01,-21.59 125.73,-21.59 56.73,0 105.62,9.74 146.69,29.21 41.06,19.47 74.29,45.72 99.69,78.74 8.47,11.01 11.85,22.44 10.16,34.29 -1.69,11.85 -8.47,21.59 -20.32,29.21 -10.16,5.93 -21.8,7.83 -34.92,5.71 -13.13,-2.11 -24.35,-8.25 -33.66,-18.41 -21.17,-24.55 -45.72,-42.55 -73.66,-53.98 -27.94,-11.43 -60.11,-17.14 -96.52,-17.14 -46.57,0 -83.82,9.52 -111.76,28.57 -27.94,19.05 -41.91,42.97 -41.91,71.76 0,19.47 5.29,36.41 15.88,50.8 10.58,14.39 28.78,27.09 54.61,38.1 25.82,11.01 62.01,20.32 108.58,27.94 63.5,10.16 113.67,25.19 150.5,45.08 36.83,19.9 63.07,43.18 78.74,69.85 15.66,26.67 23.49,55.67 23.49,87 0,39.79 -11.64,74.72 -34.92,104.77 -23.29,30.06 -55.46,53.56 -96.52,70.49 -41.07,16.93 -88.27,25.4 -141.61,25.4z"/>
  <path id="_12_11" class="fil1" d="M15505.4 4192.82c-44.87,0 -84.88,-10.58 -120.01,-31.75 -35.14,-21.17 -62.87,-50.17 -83.19,-87 -20.32,-36.83 -30.48,-78.95 -30.48,-126.36l0 -621.03c0,-14.39 4.45,-26.25 13.34,-35.56 8.89,-9.31 20.53,-13.97 34.92,-13.97 14.39,0 26.25,4.66 35.56,13.97 9.31,9.31 13.97,21.17 13.97,35.56l0 621.03c0,43.18 12.7,78.53 38.1,106.04 25.4,27.52 58,41.28 97.79,41.28l34.29 0c13.55,0 24.55,4.66 33.02,13.97 8.47,9.31 12.7,21.17 12.7,35.56 0,14.39 -5.08,26.03 -15.24,34.92 -10.16,8.89 -22.86,13.34 -38.1,13.34l-26.67 0zm-316.23 -584.2c-12.7,0 -23.28,-4.02 -31.75,-12.07 -8.47,-8.04 -12.7,-17.99 -12.7,-29.84 0,-12.7 4.23,-23.07 12.7,-31.12 8.47,-8.04 19.05,-12.06 31.75,-12.06l323.85 0c12.7,0 23.28,4.02 31.75,12.06 8.47,8.05 12.7,18.42 12.7,31.12 0,11.85 -4.23,21.8 -12.7,29.84 -8.47,8.05 -19.05,12.07 -31.75,12.07l-323.85 0z"/>
  <path id="_13" class="fil1" d="M16050.23 4199.17c-65.19,0 -123.61,-15.45 -175.26,-46.36 -51.65,-30.9 -92.5,-73.02 -122.55,-126.36 -30.06,-53.34 -45.09,-113.45 -45.09,-180.34 0,-67.73 15.45,-128.27 46.36,-181.61 30.9,-53.34 73.02,-95.46 126.36,-126.37 53.34,-30.9 113.45,-46.35 180.34,-46.35 66.89,0 126.79,15.45 179.71,46.35 52.91,30.91 94.82,73.03 125.73,126.37 30.9,53.34 46.77,113.88 47.62,181.61l-39.37 30.48c0,60.96 -14.18,115.78 -42.54,164.46 -28.37,48.69 -66.89,87.21 -115.57,115.57 -48.69,28.37 -103.93,42.55 -165.74,42.55zm10.16 -88.9c49.11,0 92.92,-11.43 131.45,-34.29 38.52,-22.86 69,-54.4 91.44,-94.62 22.43,-40.21 33.65,-85.3 33.65,-135.25 0,-50.8 -11.22,-96.1 -33.65,-135.89 -22.44,-39.79 -52.92,-71.33 -91.44,-94.62 -38.53,-23.28 -82.34,-34.92 -131.45,-34.92 -48.26,0 -91.86,11.64 -130.81,34.92 -38.95,23.29 -69.85,54.83 -92.71,94.62 -22.86,39.79 -34.29,85.09 -34.29,135.89 0,49.95 11.43,95.04 34.29,135.25 22.86,40.22 53.76,71.76 92.71,94.62 38.95,22.86 82.55,34.29 130.81,34.29zm303.53 82.55c-14.39,0 -26.25,-4.45 -35.56,-13.34 -9.31,-8.89 -13.97,-20.53 -13.97,-34.92l0 -217.17 24.13 -100.33 74.93 19.05 0 298.45c0,14.39 -4.66,26.03 -13.97,34.92 -9.31,8.89 -21.17,13.34 -35.56,13.34z"/>
 </g>
</svg>
